<?xml version="1.0" encoding="utf-8"?>
<!-- Generator: Adobe Illustrator 27.9.0, SVG Export Plug-In . SVG Version: 6.00 Build 0)  -->
<svg version="1.1" id="Layer_1" xmlns="http://www.w3.org/2000/svg" xmlns:xlink="http://www.w3.org/1999/xlink" x="0px" y="0px"
	 viewBox="0 0 385.8 94.9" style="enable-background:new 0 0 385.8 94.9;" xml:space="preserve">
<style type="text/css">
	.Graphic_x0020_Style{fill:url(#SVGID_1_);}
	.st0{fill:none;stroke:#FFFFFF;stroke-width:2;stroke-miterlimit:10;}
	.st1{fill:url(#SVGID_00000060028458785564975950000002062373217126638009_);stroke:#FFFFFF;stroke-width:2;stroke-miterlimit:10;}
	.st2{fill:url(#SVGID_00000038372575213009838050000014619416532389809083_);stroke:#FFFFFF;stroke-width:2;stroke-miterlimit:10;}
	.st3{fill:url(#SVGID_00000176763667296975847290000000046152744671808700_);stroke:#FFFFFF;stroke-width:2;stroke-miterlimit:10;}
	.st4{fill:url(#SVGID_00000106836487309911452280000013986233130284532667_);}
	.st5{fill:url(#SVGID_00000063612139339993930970000006473555479654824614_);}
	.st6{fill:url(#SVGID_00000173133264425341167890000007289224193953702816_);}
	.st7{fill:url(#SVGID_00000158027255110085203430000005274657682180819641_);}
	.st8{fill:url(#SVGID_00000085239336396337383880000003209835567529864325_);}
	.st9{fill:url(#SVGID_00000177484926237800680060000000302913248250163875_);}
	.st10{fill:url(#SVGID_00000169523901933068500500000001726348367708896942_);}
	.st11{fill:url(#SVGID_00000164502888292371477980000008939351788840349059_);}
	.st12{fill:url(#SVGID_00000029729396370725555370000014522910153986697640_);}
</style>
<linearGradient id="SVGID_1_" gradientUnits="userSpaceOnUse" x1="-96.1666" y1="-296.3191" x2="-96.1666" y2="-295.3191">
	<stop  offset="0" style="stop-color:#FFFFFF"/>
	<stop  offset="2.813989e-02" style="stop-color:#F2F2F3"/>
	<stop  offset="0.187" style="stop-color:#BDBFC1"/>
	<stop  offset="0.344" style="stop-color:#919396"/>
	<stop  offset="0.4953" style="stop-color:#707174"/>
	<stop  offset="0.6397" style="stop-color:#535456"/>
	<stop  offset="0.7755" style="stop-color:#383839"/>
	<stop  offset="0.8992" style="stop-color:#141415"/>
	<stop  offset="1" style="stop-color:#000000"/>
</linearGradient>
<image style="overflow:visible;" width="236" height="77" xlink:href="67662D0C.jpg"  transform="matrix(0.7499 0 0 0.7499 -7990.1665 -8066.4292)">
</image>
<path class="st0" d="M63.1,8.4c1.3,0,2.6,0.1,3.9,0.2c8.5,8,13.8,19.3,13.8,31.9c0,4.3-0.6,8.4-1.7,12.2c0,0,0,0,0,0
	c-8,9.7-20.2,15.9-33.8,15.9c-9.3,0-18-2.9-25.1-7.9c-0.6-2.8-0.8-5.6-0.8-8.6C19.4,28,39,8.4,63.1,8.4z"/>
<path class="st0" d="M80.8,40.5c0,4.3-0.6,8.4-1.7,12.2c0,0,0,0,0,0c-8,9.7-20.2,15.9-33.8,15.9c-9.3,0-18-2.9-25.1-7.9
	c-0.6-2.8-0.8-5.6-0.8-8.6C19.4,28,39,8.4,63.1,8.4c1.3,0,2.6,0.1,3.9,0.2C75.5,16.6,80.8,27.9,80.8,40.5z"/>
<linearGradient id="SVGID_00000075857991054100539820000015545748486812245633_" gradientUnits="userSpaceOnUse" x1="4.7367" y1="32.2883" x2="67.0398" y2="32.2883">
	<stop  offset="0" style="stop-color:#00B0D0"/>
	<stop  offset="1" style="stop-color:#11375C"/>
</linearGradient>
<path style="fill:url(#SVGID_00000075857991054100539820000015545748486812245633_);stroke:#FFFFFF;stroke-width:2;stroke-miterlimit:10;" d="
	M67,8.6c-1.3-0.1-2.6-0.2-3.9-0.2C39,8.4,19.4,28,19.4,52.2c0,2.9,0.3,5.8,0.8,8.6C13.4,55.9,7.9,49.2,4.7,41.3
	C7.8,20.1,26,3.8,48,3.8c6.4,0,12.5,1.4,18,3.9C66.4,8,66.7,8.3,67,8.6z"/>
<linearGradient id="SVGID_00000044149297141237621490000012426682389669336969_" gradientUnits="userSpaceOnUse" x1="4.2768" y1="62.7499" x2="79.1038" y2="62.7499">
	<stop  offset="0" style="stop-color:#00B0D0"/>
	<stop  offset="1" style="stop-color:#11375C"/>
</linearGradient>
<path style="fill:url(#SVGID_00000044149297141237621490000012426682389669336969_);stroke:#FFFFFF;stroke-width:2;stroke-miterlimit:10;" d="
	M79.1,52.7c-5.3,18.2-22.1,31.5-42,31.5c-1.3,0-2.6-0.1-3.9-0.2c-5-0.4-9.7-1.7-14.1-3.7h0C10,72.4,4.3,60.6,4.3,47.6
	c0-2.2,0.2-4.3,0.5-6.3c3.2,7.9,8.6,14.7,15.5,19.5c7.1,5,15.8,7.9,25.1,7.9C58.9,68.7,71.1,62.5,79.1,52.7z"/>
<path class="st0" d="M68.1,8.7c-0.4,0-0.7-0.1-1.1-0.1c-0.3-0.3-0.6-0.6-1-0.9C66.8,8,67.4,8.3,68.1,8.7z"/>
<path class="st0" d="M80.8,40.5c0,4.3-0.6,8.4-1.7,12.2c0,0,0,0,0,0c-8,9.7-20.2,15.9-33.8,15.9c-9.3,0-18-2.9-25.1-7.9
	c-0.6-2.8-0.8-5.6-0.8-8.6C19.4,28,39,8.4,63.1,8.4c1.3,0,2.6,0.1,3.9,0.2C75.5,16.6,80.8,27.9,80.8,40.5z"/>
<linearGradient id="SVGID_00000106118148445802195140000010940784961603828903_" gradientUnits="userSpaceOnUse" x1="19.0716" y1="49.9673" x2="91.8001" y2="49.9673">
	<stop  offset="0" style="stop-color:#00B0D0"/>
	<stop  offset="1" style="stop-color:#11375C"/>
</linearGradient>
<path style="fill:url(#SVGID_00000106118148445802195140000010940784961603828903_);stroke:#FFFFFF;stroke-width:2;stroke-miterlimit:10;" d="
	M91.8,47.6c0,24.2-19.6,43.8-43.8,43.8c-1.7,0-3.3-0.1-5-0.3c-9.2-1-17.4-4.9-24-10.7c4.4,2,9.1,3.2,14.1,3.7
	c1.3,0.1,2.6,0.2,3.9,0.2c19.9,0,36.7-13.3,42-31.5c0,0,0,0,0,0c1.1-3.9,1.7-8,1.7-12.2c0-12.6-5.3-23.9-13.8-31.9
	c0.4,0,0.7,0.1,1.1,0.1c9.3,4.8,16.6,12.8,20.5,22.5C90.7,36.3,91.8,41.8,91.8,47.6z"/>
<g>
	
		<linearGradient id="SVGID_00000125595950687736504440000015303107281882283398_" gradientUnits="userSpaceOnUse" x1="114.2182" y1="-51.518" x2="114.2182" y2="69.7209">
		<stop  offset="0" style="stop-color:#FFFFFF"/>
		<stop  offset="2.813989e-02" style="stop-color:#F2F2F3"/>
		<stop  offset="0.187" style="stop-color:#BDBFC1"/>
		<stop  offset="0.344" style="stop-color:#919396"/>
		<stop  offset="0.4953" style="stop-color:#707174"/>
		<stop  offset="0.6397" style="stop-color:#535456"/>
		<stop  offset="0.7755" style="stop-color:#383839"/>
		<stop  offset="0.8992" style="stop-color:#141415"/>
		<stop  offset="1" style="stop-color:#000000"/>
	</linearGradient>
	<path style="fill:url(#SVGID_00000125595950687736504440000015303107281882283398_);" d="M102.5,60.2c2,1.2,5.5,2,8.3,2
		c4.6,0,6.9-2.4,6.9-5.7c0-3.6-2.3-5.5-6.6-8.2c-6.9-4.2-9.5-9.5-9.5-14.1c0-8.1,5.4-14.8,16-14.8c3.4,0,6.5,0.9,7.9,1.8l-1.6,8.5
		c-1.4-0.9-3.6-1.7-6.4-1.7c-4.2,0-6.2,2.5-6.2,5.2c0,3,1.5,4.6,7,7.9c6.7,4,9.1,9.1,9.1,14.4c0,9.3-6.8,15.3-16.7,15.3
		c-4.1,0-8-1-9.7-2L102.5,60.2z"/>
	
		<linearGradient id="SVGID_00000181070552718995148730000004292898051835413905_" gradientUnits="userSpaceOnUse" x1="154.7375" y1="-18.3592" x2="154.7375" y2="69.5594">
		<stop  offset="0" style="stop-color:#FFFFFF"/>
		<stop  offset="2.813989e-02" style="stop-color:#F2F2F3"/>
		<stop  offset="0.187" style="stop-color:#BDBFC1"/>
		<stop  offset="0.344" style="stop-color:#919396"/>
		<stop  offset="0.4953" style="stop-color:#707174"/>
		<stop  offset="0.6397" style="stop-color:#535456"/>
		<stop  offset="0.7755" style="stop-color:#383839"/>
		<stop  offset="0.8992" style="stop-color:#141415"/>
		<stop  offset="1" style="stop-color:#000000"/>
	</linearGradient>
	<path style="fill:url(#SVGID_00000181070552718995148730000004292898051835413905_);" d="M132.8,44.7c0-4-0.2-7.5-0.3-11h8.5
		l0.5,4.3h0.1c1.9-2.7,5-4.9,8.7-4.9c4.1,0,6.8,1.9,8,5h0.1c0.9-1.4,2.3-2.8,3.7-3.7c1.5-0.9,3.3-1.3,5.1-1.3c6.6,0,9.5,5.2,9.5,14
		v23.3h-9.8V48.7c0-4.2-0.5-7.5-3.4-7.5c-1.7,0-3,1.2-3.7,3.3c-0.2,0.5-0.3,1.6-0.3,2.6v23.2H150v-23c0-2.7-0.3-6.2-3.3-6.2
		c-1.5,0-3,1.1-3.7,3.3c-0.2,0.7-0.4,1.7-0.4,2.8v23.1h-9.8V44.7z"/>
	
		<linearGradient id="SVGID_00000070105407330708178770000018070285796478354613_" gradientUnits="userSpaceOnUse" x1="195.4467" y1="-19.1848" x2="195.4467" y2="70.1467">
		<stop  offset="0" style="stop-color:#FFFFFF"/>
		<stop  offset="2.813989e-02" style="stop-color:#F2F2F3"/>
		<stop  offset="0.187" style="stop-color:#BDBFC1"/>
		<stop  offset="0.344" style="stop-color:#919396"/>
		<stop  offset="0.4953" style="stop-color:#707174"/>
		<stop  offset="0.6397" style="stop-color:#535456"/>
		<stop  offset="0.7755" style="stop-color:#383839"/>
		<stop  offset="0.8992" style="stop-color:#141415"/>
		<stop  offset="1" style="stop-color:#000000"/>
	</linearGradient>
	<path style="fill:url(#SVGID_00000070105407330708178770000018070285796478354613_);" d="M200.3,70.3l-0.5-3.6h-0.2
		c-2,2.8-4.9,4.2-8.1,4.2c-5.5,0-9.7-4.6-9.7-11.1c0-9.6,8.5-13.6,16.8-13.7v-0.8c0-2.9-1.7-5-5.2-5c-2.9,0-5.3,0.8-7.5,2.1
		l-1.8-6.6c2-1.2,6.3-2.8,11.4-2.8c11.1,0,13,7.8,13,15.3v13.7c0,2.9,0.1,5.9,0.5,8.4H200.3z M198.9,52.5c-3.2,0.1-7.8,1.2-7.8,6.3
		c0,3.6,2,5,3.5,5c1.6,0,3.3-0.9,4-3.2c0.1-0.5,0.2-1.1,0.2-1.7V52.5z"/>
	
		<linearGradient id="SVGID_00000101809440844092450490000017570572873457690530_" gradientUnits="userSpaceOnUse" x1="224.4677" y1="-18.3592" x2="224.4677" y2="69.5594">
		<stop  offset="0" style="stop-color:#FFFFFF"/>
		<stop  offset="2.813989e-02" style="stop-color:#F2F2F3"/>
		<stop  offset="0.187" style="stop-color:#BDBFC1"/>
		<stop  offset="0.344" style="stop-color:#919396"/>
		<stop  offset="0.4953" style="stop-color:#707174"/>
		<stop  offset="0.6397" style="stop-color:#535456"/>
		<stop  offset="0.7755" style="stop-color:#383839"/>
		<stop  offset="0.8992" style="stop-color:#141415"/>
		<stop  offset="1" style="stop-color:#000000"/>
	</linearGradient>
	<path style="fill:url(#SVGID_00000101809440844092450490000017570572873457690530_);" d="M215.4,44.7c0-3.6-0.2-7.6-0.3-11h8.5
		l0.5,5.4h0.3c1.6-3.9,4.6-6,7.3-6c1,0,1.5,0.1,2.1,0.2v9.7c-0.6-0.1-1.3-0.1-2.1-0.1c-2,0-4.9,1.4-5.9,5.2
		c-0.3,0.8-0.4,2.1-0.4,3.7v18.6h-9.8V44.7z"/>
	
		<linearGradient id="SVGID_00000039832650381663724790000011230827859644875916_" gradientUnits="userSpaceOnUse" x1="246.9701" y1="-41.0354" x2="246.9701" y2="69.8109">
		<stop  offset="0" style="stop-color:#FFFFFF"/>
		<stop  offset="2.813989e-02" style="stop-color:#F2F2F3"/>
		<stop  offset="0.187" style="stop-color:#BDBFC1"/>
		<stop  offset="0.344" style="stop-color:#919396"/>
		<stop  offset="0.4953" style="stop-color:#707174"/>
		<stop  offset="0.6397" style="stop-color:#535456"/>
		<stop  offset="0.7755" style="stop-color:#383839"/>
		<stop  offset="0.8992" style="stop-color:#141415"/>
		<stop  offset="1" style="stop-color:#000000"/>
	</linearGradient>
	<path style="fill:url(#SVGID_00000039832650381663724790000011230827859644875916_);" d="M250.5,23.7v9.9h7.2v7h-7.2v16.8
		c0,4.3,1.8,5.3,3.7,5.3c1,0,1.7-0.1,2.6-0.2l0.1,7.7c-1.4,0.4-3.4,0.6-6,0.6c-2.8,0-5.3-0.7-7.1-2.3c-2-1.9-3.1-4.7-3.1-10.5V40.6
		h-4.3v-7h4.3v-7.5L250.5,23.7z"/>
	
		<linearGradient id="SVGID_00000157307049516034947240000012621555974698891944_" gradientUnits="userSpaceOnUse" x1="274.1088" y1="-49.8281" x2="274.1088" y2="69.289">
		<stop  offset="0" style="stop-color:#FFFFFF"/>
		<stop  offset="2.813989e-02" style="stop-color:#F2F2F3"/>
		<stop  offset="0.187" style="stop-color:#BDBFC1"/>
		<stop  offset="0.344" style="stop-color:#919396"/>
		<stop  offset="0.4953" style="stop-color:#707174"/>
		<stop  offset="0.6397" style="stop-color:#535456"/>
		<stop  offset="0.7755" style="stop-color:#383839"/>
		<stop  offset="0.8992" style="stop-color:#141415"/>
		<stop  offset="1" style="stop-color:#000000"/>
	</linearGradient>
	<path style="fill:url(#SVGID_00000157307049516034947240000012621555974698891944_);" d="M263.1,19.8h22v8.5H273v13h11.4v8.2H273
		v20.9h-9.8V19.8z"/>
	
		<linearGradient id="SVGID_00000087374101234857986000000001772922089541802159_" gradientUnits="userSpaceOnUse" x1="296.2807" y1="-53.0372" x2="296.2807" y2="69.2615">
		<stop  offset="0" style="stop-color:#FFFFFF"/>
		<stop  offset="2.813989e-02" style="stop-color:#F2F2F3"/>
		<stop  offset="0.187" style="stop-color:#BDBFC1"/>
		<stop  offset="0.344" style="stop-color:#919396"/>
		<stop  offset="0.4953" style="stop-color:#707174"/>
		<stop  offset="0.6397" style="stop-color:#535456"/>
		<stop  offset="0.7755" style="stop-color:#383839"/>
		<stop  offset="0.8992" style="stop-color:#141415"/>
		<stop  offset="1" style="stop-color:#000000"/>
	</linearGradient>
	<path style="fill:url(#SVGID_00000087374101234857986000000001772922089541802159_);" d="M291.4,18.4h9.8v51.9h-9.8V18.4z"/>
	
		<linearGradient id="SVGID_00000073714369039349166250000014978303074801598885_" gradientUnits="userSpaceOnUse" x1="320.9833" y1="-19.1848" x2="320.9833" y2="70.1467">
		<stop  offset="0" style="stop-color:#FFFFFF"/>
		<stop  offset="2.813989e-02" style="stop-color:#F2F2F3"/>
		<stop  offset="0.187" style="stop-color:#BDBFC1"/>
		<stop  offset="0.344" style="stop-color:#919396"/>
		<stop  offset="0.4953" style="stop-color:#707174"/>
		<stop  offset="0.6397" style="stop-color:#535456"/>
		<stop  offset="0.7755" style="stop-color:#383839"/>
		<stop  offset="0.8992" style="stop-color:#141415"/>
		<stop  offset="1" style="stop-color:#000000"/>
	</linearGradient>
	<path style="fill:url(#SVGID_00000073714369039349166250000014978303074801598885_);" d="M335,51.8c0,15.3-8.5,19.1-14,19.1
		c-8.8,0-14-6.9-14-18.8c0-13.2,6.9-19.1,14.2-19.1C329.8,33,335,40.3,335,51.8z M316.7,51.9c0,6.3,1,11.5,4.5,11.5
		c3.2,0,4-6.2,4-11.5c0-5.1-0.8-11.4-4.2-11.4C317.5,40.5,316.7,46.8,316.7,51.9z"/>
	
		<linearGradient id="SVGID_00000152986633814747883650000012327842772259403454_" gradientUnits="userSpaceOnUse" x1="359.4516" y1="-16.9316" x2="359.4516" y2="69.5716">
		<stop  offset="0" style="stop-color:#FFFFFF"/>
		<stop  offset="2.813989e-02" style="stop-color:#F2F2F3"/>
		<stop  offset="0.187" style="stop-color:#BDBFC1"/>
		<stop  offset="0.344" style="stop-color:#919396"/>
		<stop  offset="0.4953" style="stop-color:#707174"/>
		<stop  offset="0.6397" style="stop-color:#535456"/>
		<stop  offset="0.7755" style="stop-color:#383839"/>
		<stop  offset="0.8992" style="stop-color:#141415"/>
		<stop  offset="1" style="stop-color:#000000"/>
	</linearGradient>
	<path style="fill:url(#SVGID_00000152986633814747883650000012327842772259403454_);" d="M347.4,33.6l1.9,15.8
		c0.5,4,1,7.7,1.3,11.1h0.2c0.5-3.5,1.3-7.5,2-11l3.2-16h7.6l3.1,15.6c0.8,4.2,1.5,7.8,1.9,11.4h0.2c0.3-3.5,0.7-7.3,1.3-11.3
		l2.2-15.7h9.7l-9.5,36.7h-8.4l-2.7-12.8c-0.7-3.4-1.4-7.3-1.9-11.5h-0.1c-0.5,4.2-1.3,8.1-2.1,11.5l-3.1,12.7h-8.4l-9-36.7H347.4z"
		/>
</g>
</svg>
